<svg id="visual" viewBox="0 0 900 600" width="900" height="600" xmlns="http://www.w3.org/2000/svg" xmlns:xlink="http://www.w3.org/1999/xlink" version="1.1"><rect x="0" y="0" width="900" height="600" fill="#05004c"></rect><defs><linearGradient id="grad1_0" x1="33.3%" y1="0%" x2="100%" y2="100%"><stop offset="20%" stop-color="#0066ff" stop-opacity="1"></stop><stop offset="80%" stop-color="#0066ff" stop-opacity="1"></stop></linearGradient></defs><defs><linearGradient id="grad1_1" x1="33.3%" y1="0%" x2="100%" y2="100%"><stop offset="20%" stop-color="#0066ff" stop-opacity="1"></stop><stop offset="80%" stop-color="#1e41be" stop-opacity="1"></stop></linearGradient></defs><defs><linearGradient id="grad1_2" x1="33.3%" y1="0%" x2="100%" y2="100%"><stop offset="20%" stop-color="#172082" stop-opacity="1"></stop><stop offset="80%" stop-color="#1e41be" stop-opacity="1"></stop></linearGradient></defs><defs><linearGradient id="grad1_3" x1="33.3%" y1="0%" x2="100%" y2="100%"><stop offset="20%" stop-color="#172082" stop-opacity="1"></stop><stop offset="80%" stop-color="#05004c" stop-opacity="1"></stop></linearGradient></defs><defs><linearGradient id="grad2_0" x1="0%" y1="0%" x2="66.7%" y2="100%"><stop offset="20%" stop-color="#0066ff" stop-opacity="1"></stop><stop offset="80%" stop-color="#0066ff" stop-opacity="1"></stop></linearGradient></defs><defs><linearGradient id="grad2_1" x1="0%" y1="0%" x2="66.7%" y2="100%"><stop offset="20%" stop-color="#1e41be" stop-opacity="1"></stop><stop offset="80%" stop-color="#0066ff" stop-opacity="1"></stop></linearGradient></defs><defs><linearGradient id="grad2_2" x1="0%" y1="0%" x2="66.7%" y2="100%"><stop offset="20%" stop-color="#1e41be" stop-opacity="1"></stop><stop offset="80%" stop-color="#172082" stop-opacity="1"></stop></linearGradient></defs><defs><linearGradient id="grad2_3" x1="0%" y1="0%" x2="66.7%" y2="100%"><stop offset="20%" stop-color="#05004c" stop-opacity="1"></stop><stop offset="80%" stop-color="#172082" stop-opacity="1"></stop></linearGradient></defs><g transform="translate(900, 0)"><path d="M0 405.6C-50.4 360.2 -100.9 314.8 -165.5 286.7C-230.1 258.5 -308.9 247.7 -351.3 202.8C-393.7 157.9 -399.6 79 -405.6 0L0 0Z" fill="#0e1066"></path><path d="M0 304.2C-37.8 270.2 -75.7 236.1 -124.1 215C-172.6 193.9 -231.7 185.8 -263.5 152.1C-295.2 118.4 -299.7 59.2 -304.2 0L0 0Z" fill="#1c30a0"></path><path d="M0 202.8C-25.2 180.1 -50.4 157.4 -82.7 143.3C-115.1 129.3 -154.4 123.9 -175.6 101.4C-196.8 79 -199.8 39.5 -202.8 0L0 0Z" fill="#1953de"></path><path d="M0 101.4C-12.6 90.1 -25.2 78.7 -41.4 71.7C-57.5 64.6 -77.2 61.9 -87.8 50.7C-98.4 39.5 -99.9 19.7 -101.4 0L0 0Z" fill="#0066ff"></path></g><g transform="translate(0, 600)"><path d="M0 -405.6C50.2 -359.7 100.4 -313.9 165 -285.8C229.6 -257.7 308.8 -247.5 351.3 -202.8C393.8 -158.2 399.7 -79.1 405.6 0L0 0Z" fill="#0e1066"></path><path d="M0 -304.2C37.6 -269.8 75.3 -235.4 123.7 -214.3C172.2 -193.3 231.6 -185.6 263.5 -152.1C295.3 -118.6 299.8 -59.3 304.2 0L0 0Z" fill="#1c30a0"></path><path d="M0 -202.8C25.1 -179.9 50.2 -156.9 82.5 -142.9C114.8 -128.9 154.4 -123.7 175.6 -101.4C196.9 -79.1 199.9 -39.5 202.8 0L0 0Z" fill="#1953de"></path><path d="M0 -101.4C12.5 -89.9 25.1 -78.5 41.2 -71.4C57.4 -64.4 77.2 -61.9 87.8 -50.7C98.4 -39.5 99.9 -19.8 101.4 0L0 0Z" fill="#0066ff"></path></g></svg>