<svg id="visual" viewBox="0 0 900 600" width="900" height="600" xmlns="http://www.w3.org/2000/svg" xmlns:xlink="http://www.w3.org/1999/xlink" version="1.1"><g transform="translate(491.08349719882557 295.56251900456573)"><path d="M123.1 -225.9C150.1 -197.5 156.3 -145.6 164.9 -104.1C173.6 -62.5 184.8 -31.3 188.2 2C191.6 35.2 187.2 70.3 173.4 103.1C159.7 135.9 136.6 166.2 106.1 194.1C75.7 222.1 37.8 247.5 -5.6 257.2C-49 266.9 -98 260.7 -131.9 234.8C-165.8 208.9 -184.7 163.2 -207.8 120.8C-231 78.3 -258.5 39.2 -267.9 -5.4C-277.3 -50 -268.5 -100 -236.7 -127.4C-204.9 -154.8 -149.9 -159.7 -106.6 -178.7C-63.3 -197.7 -31.7 -230.8 8.2 -245C48 -259.1 96 -254.3 123.1 -225.9" fill="#5000c7"></path></g></svg>