<svg id="visual" viewBox="0 0 900 600" width="900" height="600" xmlns="http://www.w3.org/2000/svg" xmlns:xlink="http://www.w3.org/1999/xlink" version="1.1"><g transform="translate(452.86453786468985 316.6775830657122)"><path d="M122.8 -223.1C153 -195.3 167 -149.9 189.8 -109.8C212.7 -69.7 244.3 -34.8 247.2 1.7C250.1 38.2 224.2 76.3 194.7 104.9C165.2 133.5 132.1 152.5 99.1 164.7C66 176.8 33 182.2 -8.5 196.9C-50 211.6 -100 235.7 -135.2 224.8C-170.4 213.9 -190.9 167.9 -211 124.6C-231.2 81.3 -251.1 40.7 -253 -1.1C-254.9 -42.8 -238.7 -85.7 -216.7 -125.8C-194.7 -165.9 -166.9 -203.3 -129.8 -227.1C-92.7 -250.8 -46.3 -260.9 0 -260.9C46.3 -260.9 92.7 -250.8 122.8 -223.1" fill="#5000c7"></path></g></svg>